<?xml version="1.0" standalone="no"?>
<!DOCTYPE svg PUBLIC "-//W3C//DTD SVG 20010904//EN"
 "http://www.w3.org/TR/2001/REC-SVG-20010904/DTD/svg10.dtd">
<svg version="1.0" xmlns="http://www.w3.org/2000/svg"
 width="196.000000pt" height="196.000000pt" viewBox="0 0 196.000000 196.000000"
 preserveAspectRatio="xMidYMid meet">
<metadata>
Created by potrace 1.11, written by Peter Selinger 2001-2013
</metadata>
<g transform="translate(0.000000,196.000000) scale(0.100000,-0.100000)"
fill="#000000" stroke="none">
<path d="M0 980 l0 -980 980 0 980 0 0 980 0 980 -980 0 -980 0 0 -980z m1154
363 c3 -10 26 -97 51 -193 26 -96 48 -182 51 -191 3 -12 -53 -68 -187 -188
l-191 -171 -176 0 c-173 0 -176 0 -157 19 11 10 97 87 190 171 113 101 169
157 167 168 -2 9 -26 100 -53 202 -27 102 -49 188 -49 193 0 4 78 7 174 7 158
0 175 -2 180 -17z m460 -35 c8 -29 31 -116 51 -193 20 -77 38 -147 41 -156 3
-12 -53 -69 -186 -188 l-191 -171 -174 0 c-96 0 -175 1 -175 3 0 2 85 79 189
171 104 93 188 174 186 180 -8 24 -105 393 -105 399 0 4 78 7 174 7 l175 0 15
-52z"/>
<path d="M929 932 c-9 -9 -48 -48 -88 -86 -39 -38 -70 -71 -67 -73 2 -2 56 -4
120 -4 135 -1 137 0 261 115 l70 65 -140 0 c-117 -1 -143 -3 -156 -17z"/>
<path d="M1305 860 l-90 -90 130 0 131 0 97 85 c53 48 97 88 97 90 0 3 -62 5
-137 4 l-138 0 -90 -89z"/>
</g>
</svg>
